<svg width="24" height="24" viewBox="0 0 24 24" fill="currentColor" xmlns="http://www.w3.org/2000/svg">
  <path fill-rule="evenodd" clip-rule="evenodd" d="M2.24989 10.175C2.24989 9.97604 2.32891 9.78527 2.46956 9.64462C2.61021 9.50397 2.80098 9.42495 2.99989 9.42495C3.1988 9.42495 3.38957 9.50397 3.53022 9.64462C3.67087 9.78527 3.74989 9.97604 3.74989 10.175V18.6749C3.74989 19.2717 3.98694 19.844 4.4089 20.2659C4.83086 20.6879 5.40315 20.9249 5.99989 20.9249H17.9999C18.5966 20.9249 19.1689 20.6879 19.5909 20.2659C20.0128 19.844 20.2499 19.2717 20.2499 18.6749V10.175C20.2499 9.97604 20.3289 9.78527 20.4696 9.64462C20.6102 9.50397 20.801 9.42495 20.9999 9.42495C21.1988 9.42495 21.3896 9.50397 21.5302 9.64462C21.6709 9.78527 21.7499 9.97604 21.7499 10.175V18.6749C21.7499 19.6695 21.3548 20.6233 20.6515 21.3266C19.9483 22.0299 18.9945 22.4249 17.9999 22.4249H5.99989C5.00533 22.4249 4.0515 22.0299 3.34824 21.3266C2.64498 20.6233 2.24989 19.6695 2.24989 18.6749V10.175Z"/>
  <path fill-rule="evenodd" clip-rule="evenodd" d="M11.9999 13.425C12.9943 13.4255 13.9478 13.8207 14.651 14.5239C15.3541 15.227 15.7494 16.1806 15.7499 17.175V21.6749C15.7499 21.8739 15.6709 22.0646 15.5302 22.2053C15.3896 22.3459 15.1988 22.4249 14.9999 22.4249C14.801 22.4249 14.6102 22.3459 14.4696 22.2053C14.3289 22.0646 14.2499 21.8739 14.2499 21.6749V17.175C14.2499 16.5782 14.0128 16.0059 13.5909 15.584C13.1689 15.162 12.5966 14.925 11.9999 14.925C11.4032 14.925 10.8309 15.162 10.4089 15.584C9.98694 16.0059 9.74989 16.5782 9.74989 17.175V21.6749C9.74989 21.8739 9.67087 22.0646 9.53022 22.2053C9.38957 22.3459 9.1988 22.4249 8.99989 22.4249C8.80098 22.4249 8.61021 22.3459 8.46956 22.2053C8.32891 22.0646 8.24989 21.8739 8.24989 21.6749V17.175C8.25042 16.1806 8.64568 15.227 9.34883 14.5239C10.052 13.8207 11.0055 13.4255 11.9999 13.425ZM8.94389 2.32495V7.94995C8.94363 8.9645 8.54041 9.9374 7.82293 10.6547C7.10544 11.372 6.13244 11.775 5.11789 11.775C4.53029 11.7746 3.95048 11.6404 3.42245 11.3827C2.89441 11.1249 2.43201 10.7502 2.07031 10.2871C1.70861 9.82405 1.45711 9.28468 1.33489 8.70993C1.21267 8.13518 1.22293 7.54015 1.36489 6.96995L2.15989 3.79095C2.31804 3.15798 2.68327 2.59604 3.1975 2.19451C3.71174 1.79298 4.34546 1.5749 4.99789 1.57495H8.19389C8.3928 1.57495 8.58357 1.65397 8.72422 1.79462C8.86487 1.93527 8.94389 2.12604 8.94389 2.32495ZM7.44389 3.07495H4.99789C4.34389 3.07495 3.77389 3.51995 3.61589 4.15395L2.82089 7.33395C2.73406 7.68294 2.72782 8.04711 2.80265 8.39887C2.87747 8.75063 3.0314 9.08073 3.25277 9.36415C3.47413 9.64758 3.75712 9.87689 4.08027 10.0347C4.40342 10.1925 4.75826 10.2747 5.11789 10.275C5.73461 10.275 6.32609 10.03 6.76227 9.59404C7.19845 9.15804 7.44363 8.56667 7.44389 7.94995V3.07495ZM15.8059 1.57495H19.0019C20.3439 1.57495 21.5139 2.48795 21.8399 3.79095L22.6349 6.96995C22.7769 7.54015 22.7871 8.13518 22.6649 8.70993C22.5427 9.28468 22.2912 9.82405 21.9295 10.2871C21.5678 10.7502 21.1054 11.1249 20.5773 11.3827C20.0493 11.6404 19.4695 11.7746 18.8819 11.775C17.8673 11.775 16.8943 11.372 16.1769 10.6547C15.4594 9.9374 15.0562 8.9645 15.0559 7.94995V2.32495C15.0559 2.12604 15.1349 1.93527 15.2756 1.79462C15.4162 1.65397 15.607 1.57495 15.8059 1.57495ZM16.5559 3.07495V7.94995C16.5562 8.56667 16.8013 9.15804 17.2375 9.59404C17.6737 10.03 18.2652 10.275 18.8819 10.275C19.2415 10.2747 19.5964 10.1925 19.9195 10.0347C20.2427 9.87689 20.5257 9.64758 20.747 9.36415C20.9684 9.08073 21.1223 8.75063 21.1971 8.39887C21.272 8.04711 21.2657 7.68294 21.1789 7.33395L20.3839 4.15395C20.3069 3.8457 20.1291 3.57205 19.8786 3.37653C19.6282 3.18101 19.3196 3.07486 19.0019 3.07495H16.5559Z"/>
  <path fill-rule="evenodd" clip-rule="evenodd" d="M8.18589 1.57495L15.8059 1.57495C15.9045 1.57495 16.0021 1.59438 16.0931 1.63214C16.1842 1.66989 16.2669 1.72522 16.3366 1.79497C16.4062 1.86472 16.4615 1.94752 16.4991 2.03863C16.5367 2.12974 16.556 2.22738 16.5559 2.32595L16.5509 7.76595C16.5501 8.82948 16.1271 9.84918 15.3747 10.6009C14.6224 11.3527 13.6024 11.775 12.5389 11.775H11.4489C10.3848 11.775 9.36418 11.3523 8.61163 10.5999C7.85907 9.84756 7.43616 8.82709 7.43589 7.76295V2.32495C7.43589 2.12604 7.51491 1.93527 7.65556 1.79462C7.79621 1.65397 7.98698 1.57495 8.18589 1.57495ZM8.93589 3.07495V7.76295C8.93616 8.42927 9.20104 9.0682 9.67229 9.53927C10.1435 10.0103 10.7826 10.275 11.4489 10.275H12.5389C12.8686 10.2751 13.1952 10.2103 13.4999 10.0842C13.8046 9.95813 14.0815 9.77328 14.3147 9.54021C14.548 9.30713 14.7331 9.03039 14.8594 8.72579C14.9857 8.4212 15.0508 8.0947 15.0509 7.76495L15.0559 3.07495H8.93589Z"/>
</svg>
